<svg id="Artwork" xmlns="http://www.w3.org/2000/svg" viewBox="0 0 28.8 28.8"><defs><style>.cls-1{fill:#1e364c;}</style></defs><title>20190108_KademEducation_App_Icons</title><path class="cls-1" d="M10.88,21.07a.58.58,0,0,1-.83-.34l-.6-1.92-2,.18a.58.58,0,0,1-.63-.63l.18-2-.59-.19L2.63,22.62a.51.51,0,0,0,.52.75l3.43-.58,1.2,3.28a.5.5,0,0,0,.9.08l3.4-5.71Z"/><path class="cls-1" d="M17.92,21.07a.58.58,0,0,0,.83-.34l.6-1.92,2,.18a.58.58,0,0,0,.63-.63l-.18-2,.59-.19,3.77,6.47a.5.5,0,0,1-.52.74l-3.44-.58L21,26.07a.5.5,0,0,1-.9.08l-3.4-5.71Z"/><path class="cls-1" d="M23.22,11l-1.33-1.1.81-1.54a.51.51,0,0,0-.3-.71l-1.65-.51.16-1.72a.49.49,0,0,0-.54-.54L18.64,5l-.51-1.65a.5.5,0,0,0-.71-.29l-1.53.8L14.78,2.57a.52.52,0,0,0-.76,0L12.91,3.9l-1.53-.8a.5.5,0,0,0-.71.29L10.16,5,8.43,4.89a.5.5,0,0,0-.54.54l.16,1.72L6.4,7.66a.5.5,0,0,0-.29.71l.8,1.53L5.58,11a.5.5,0,0,0,0,.77l1.33,1.11-.8,1.52a.49.49,0,0,0,.29.71l1.65.52-.16,1.72a.5.5,0,0,0,.54.54l1.73-.15.51,1.64a.5.5,0,0,0,.71.3l1.53-.8L14,20.21a.49.49,0,0,0,.76,0l1.11-1.32,1.53.8a.5.5,0,0,0,.71-.29l.51-1.65,1.73.15a.49.49,0,0,0,.54-.54l-.16-1.72,1.65-.52a.5.5,0,0,0,.3-.71l-.81-1.53,1.33-1.1A.5.5,0,0,0,23.22,11Zm-5.11-2-3.95,5.29a.51.51,0,0,1-.76.06l-2.66-2.67a.48.48,0,0,1,0-.7.5.5,0,0,1,.71,0l2.25,2.25,3.61-4.83a.5.5,0,0,1,.7-.1A.51.51,0,0,1,18.11,9.05Z"/></svg>