<svg id="Artwork" xmlns="http://www.w3.org/2000/svg" viewBox="0 0 28.8 28.8"><defs><style>.cls-1{fill:#1e364c;}</style></defs><title>20190108_KademEducation_App_Icons_v2</title><rect class="cls-1" x="22.4" y="16.61" width="4" height="9" rx="0.5"/><path class="cls-1" d="M14.4,19.61H10.9a1,1,0,0,0-1,1,.94.94,0,0,0,1,1h5.5a.5.5,0,0,1,.5.5.5.5,0,0,1-.5.5H10.9a1.94,1.94,0,0,1-2-2v0L6,19.69a3.24,3.24,0,0,0-3.49,1.13.49.49,0,0,0,.13.8C9.46,25,11.4,26.55,13.73,26.55c1.69,0,3.61-.81,7.67-2.18V17.61H18.9A7.46,7.46,0,0,0,14.4,19.61Z"/><path class="cls-1" d="M12.9,6.34a3.07,3.07,0,0,1,3,2.72h5l-2.64-6.6A.34.34,0,0,0,18,2.25H7.79a.34.34,0,0,0-.32.21L4.83,9.06h5A3.07,3.07,0,0,1,12.9,6.34Z"/><path class="cls-1" d="M14.82,18.09c.23-.16.45-.34.69-.48A9.16,9.16,0,0,1,16.93,17a6.29,6.29,0,0,1,.62-.17,5.82,5.82,0,0,1,.92-.13c.65,0,1.29,0,1.93,0V9.75H15.63a.35.35,0,0,1-.34-.35,2.39,2.39,0,0,0-4.78,0,.35.35,0,0,1-.34.35H5.4v8.82a21,21,0,0,1,3.69,1,2.36,2.36,0,0,1,2.45-1V15.88a1.36,1.36,0,1,1,2.72,0v2.59Zm1.49-7H19v2H16.31Zm0,3.41H19v2H16.31Zm-6.82,2H6.76v-2H9.49Zm0-3.41H6.76v-2H9.49Zm4.43-.68h-2a.34.34,0,0,1-.34-.34V9.75a1.36,1.36,0,1,1,2.72,0v2.38A.34.34,0,0,1,13.92,12.47Z"/></svg>