<svg id="Artwork" xmlns="http://www.w3.org/2000/svg" viewBox="0 0 28.8 28.8"><defs><style>.cls-1{fill:#1e364c;}</style></defs><title>20190108_KademEducation_App_Icons</title><circle class="cls-1" cx="14.4" cy="6.4" r="3"/><circle class="cls-1" cx="21.4" cy="7.4" r="2"/><circle class="cls-1" cx="7.4" cy="7.4" r="2"/><path class="cls-1" d="M5.9,18.4h3a.5.5,0,0,0,.5-.5V12.4a2,2,0,0,0-4,0v5.5A.5.5,0,0,0,5.9,18.4Z"/><path class="cls-1" d="M19.9,18.4h3a.5.5,0,0,0,.5-.5V12.4a2,2,0,1,0-4,0v5.5A.5.5,0,0,0,19.9,18.4Z"/><path class="cls-1" d="M11.9,20.4h5a.5.5,0,0,0,.5-.5V13.4a3,3,0,1,0-6,0v6.5A.5.5,0,0,0,11.9,20.4Z"/><path class="cls-1" d="M18.4,20.53v.37a.5.5,0,0,1-.5.5h-7a.5.5,0,0,1-.5-.5v-.37c-3.51.22-8,.8-8,2.37,0,2.43,10.77,2.5,12,2.5s12-.07,12-2.5C26.4,21.33,21.91,20.75,18.4,20.53Z"/></svg>