<svg id="Artwork" xmlns="http://www.w3.org/2000/svg" viewBox="0 0 28.8 28.8"><defs><style>.cls-1{fill:#1e364c;}</style></defs><title>20190108_KademEducation_App_Icons</title><path class="cls-1" d="M26.4,4.9a.49.49,0,0,0-.5-.5h-2c0-.48,0-1,0-1.51a.5.5,0,0,0-.5-.5H5.4a.5.5,0,0,0-.5.5q0,.78,0,1.5h-2a.5.5,0,0,0-.5.5c0,4.12.72,8.29,4.84,8.49,2.41,3.46,5.63,2.83,5.63,6,0,2.48-.72,4-4,4a.5.5,0,0,0-.5.5v2a.5.5,0,0,0,.5.5h11a.5.5,0,0,0,.5-.5v-2a.5.5,0,0,0-.5-.5c-2.87,0-4-1.16-4-4,0-3.17,3.22-2.58,5.66-6C25.7,13.19,26.43,8.92,26.4,4.9Zm-23,.5H5a17.52,17.52,0,0,0,1.61,6.9C3.82,11.69,3.37,8.22,3.4,5.4ZM17.68,8.31l-1.48,1,.67,1.91a.5.5,0,0,1-.77.56l-1.7-1.27L12.7,11.8a.51.51,0,0,1-.6,0,.5.5,0,0,1-.18-.57l.67-1.9-1.48-1a.49.49,0,0,1-.19-.56.5.5,0,0,1,.48-.35h1.69L14,5.68a.52.52,0,0,1,.89,0l.87,1.72H17.4a.48.48,0,0,1,.47.35A.49.49,0,0,1,17.68,8.31Zm4.51,4a17.25,17.25,0,0,0,1.63-6.89H25.4C25.42,8.22,25,11.69,22.19,12.3Z"/></svg>