<svg id="Artwork" xmlns="http://www.w3.org/2000/svg" viewBox="0 0 28.8 28.8"><defs><style>.cls-1{fill:#1e364c;}</style></defs><title>20190108_KademEducation_App_Icons</title><path class="cls-1" d="M23.11,10.81c0-5.27-4.86-8.41-9.56-8.41a9.92,9.92,0,0,0-10,10.06c0,3.6,1.34,6.28,4,8V25.9a.5.5,0,0,0,.5.5h10a.5.5,0,0,0,.5-.5v-3c1.73,0,2.78-.19,3.57-1s.95-3.34,1-4.53c.3,0,.68,0,1,0,.56,0,1.15-.39,1.15-1.41C25.25,14.07,23.8,12.67,23.11,10.81Zm-4.24-.53-2.73,2.28,1.38,3.66a.5.5,0,0,1-.76.59l-3.21-2.3-3.21,2.3a.53.53,0,0,1-.6,0,.51.51,0,0,1-.16-.58L11,12.56,8.23,10.29a.48.48,0,0,1-.15-.56.5.5,0,0,1,.47-.33h3.17l1.37-3.2a.5.5,0,0,1,.91,0l1.37,3.2h3.18a.51.51,0,0,1,.47.33A.5.5,0,0,1,18.87,10.28Z"/></svg>