<svg id="Artwork" xmlns="http://www.w3.org/2000/svg" viewBox="0 0 28.8 28.8"><defs><style>.cls-1{fill:#1e364c;}</style></defs><title>20190108_KademEducation_App_Icons</title><path class="cls-1" d="M15.23,22.9a.47.47,0,0,0-.48-.5h-8a.51.51,0,0,0-.36.15.5.5,0,0,0-.14.35l0,3a.5.5,0,0,0,.5.5h8a.47.47,0,0,0,.35-.15.42.42,0,0,0,.13-.35Z"/><path class="cls-1" d="M17.75,2.4h-8a1.5,1.5,0,0,0-1.5,1.5V15.4L10,11.12A2.56,2.56,0,0,1,11.5,9.6a2.74,2.74,0,0,1,1.89.05,2.77,2.77,0,0,1,1.66,3.6,10.58,10.58,0,0,0-.55,2.07,11.72,11.72,0,0,1,.56,2.08h2.69a1.5,1.5,0,0,0,1.5-1.5V3.9A1.5,1.5,0,0,0,17.75,2.4Z"/><path class="cls-1" d="M24.32,6.2a1.48,1.48,0,0,0-.93-.67l-3.13-.74V15.9a2.5,2.5,0,0,1-2.5,2.5H14.18a10.53,10.53,0,0,0-.71-3,12.46,12.46,0,0,1,.64-2.55,1.65,1.65,0,0,0-.17-1.6,1.94,1.94,0,0,0-1.57-.83,1.56,1.56,0,0,0-1.48,1L9,16.35A1.09,1.09,0,0,1,8,17a.66.66,0,0,1-.5-.22.89.89,0,0,1-.19-.36c0-.18-.05-.36-.07-.52V6.81c-.3.66-.59,1.26-.86,1.8-2.68,5.53-2.79,5.74-.61,9.7.42.74.91,1.63,1.47,2.74v.35h7V19.9c0-.39,0-.77,0-1.13l5.7,1.35a1.45,1.45,0,0,0,.35,0A1.49,1.49,0,0,0,21.73,19L24.5,7.33A1.46,1.46,0,0,0,24.32,6.2Z"/></svg>