<svg id="Artwork" xmlns="http://www.w3.org/2000/svg" viewBox="0 0 28.8 28.8"><defs><style>.cls-1{fill:#1e364c;}</style></defs><title>20190108_KademEducation_App_Icons</title><path class="cls-1" d="M6.9,7.9a.5.5,0,0,0,.5-.5V2.9a.5.5,0,0,0-1,0V7.4A.5.5,0,0,0,6.9,7.9Z"/><path class="cls-1" d="M11.9,7.9a.5.5,0,0,0,.5-.5V2.9a.5.5,0,0,0-1,0V7.4A.5.5,0,0,0,11.9,7.9Z"/><path class="cls-1" d="M16.9,7.9a.5.5,0,0,0,.5-.5V2.9a.5.5,0,1,0-1,0V7.4A.5.5,0,0,0,16.9,7.9Z"/><path class="cls-1" d="M21.9,7.9a.5.5,0,0,0,.5-.5V2.9a.5.5,0,1,0-1,0V7.4A.5.5,0,0,0,21.9,7.9Z"/><path class="cls-1" d="M24.9,4.4H23.4v3a1.5,1.5,0,0,1-3,0v-3h-2v3a1.5,1.5,0,0,1-3,0v-3h-2v3a1.5,1.5,0,0,1-3,0v-3h-2v3a1.5,1.5,0,0,1-3,0v-3H3.9a.5.5,0,0,0-.5.5v21a.5.5,0,0,0,.5.5h15a.49.49,0,0,0,.35-.15l6-6a.49.49,0,0,0,.15-.35V4.9A.5.5,0,0,0,24.9,4.4ZM12.43,16.93l-3,3a.75.75,0,0,1-1.06,0l-1.5-1.5a.75.75,0,0,1,.53-1.28h0a.75.75,0,0,1,.53.22l1,1,2.47-2.47a.75.75,0,0,1,.53-.22h0a.75.75,0,0,1,.53,1.28Zm0-5.5-3,3a.75.75,0,0,1-1.06,0l-1.5-1.5a.75.75,0,0,1,.53-1.28h0a.75.75,0,0,1,.53.22l1,1,2.47-2.47a.75.75,0,0,1,.53-.22h0a.75.75,0,0,1,.53,1.28Zm1.47.72h6.5a.75.75,0,0,1,0,1.5H13.9a.75.75,0,0,1,0-1.5Zm0,6.5a.75.75,0,1,1,0-1.5h6.5a.75.75,0,0,1,0,1.5Zm5.5,6V20.4h4.29Z"/></svg>