<svg id="Artwork" xmlns="http://www.w3.org/2000/svg" viewBox="0 0 28.8 28.8"><defs><style>.cls-1{fill:#1e364c;}</style></defs><title>20190108_KademEducation_App_Icons</title><path class="cls-1" d="M16.39,10.92a2.18,2.18,0,0,0-1.41.49,2.21,2.21,0,0,0-1.42-.49,2.56,2.56,0,0,0-2.51,2.78c.06,2.45,3.56,4.19,3.71,4.26A.51.51,0,0,0,15,18,.59.59,0,0,0,15.2,18c.14-.07,3.64-1.81,3.7-4.28A2.55,2.55,0,0,0,16.39,10.92Z"/><path class="cls-1" d="M25.9,3.4h-3a.5.5,0,0,0-.5.5v7a.48.48,0,0,0,.5.49h3a.48.48,0,0,0,.5-.49v-7A.5.5,0,0,0,25.9,3.4Z"/><path class="cls-1" d="M7.59,4.78c-1.28.68-2.88,1.53-4.91,2.55a.5.5,0,0,0-.13.8A3.24,3.24,0,0,0,6.06,9.25L9.57,8.08C9.46,7.79,9.4,8,9.4,7.64a2.47,2.47,0,0,1,.48-1.5,1.86,1.86,0,0,1,1.52-.75h5.5a.5.5,0,0,1,.5.5.5.5,0,0,1-.5.5H11.4c-.79,0-1,.79-1,1.25s.21,1.25,1,1.25h2.8a7.08,7.08,0,0,0,4.7,1.5h2.5V4.58l-2.26-.77C13.32,1.78,13.21,1.79,7.59,4.78Z"/><path class="cls-1" d="M2.9,25.39h3a.48.48,0,0,0,.5-.49v-7a.5.5,0,0,0-.5-.5h-3a.5.5,0,0,0-.5.5v7A.48.48,0,0,0,2.9,25.39Z"/><path class="cls-1" d="M21.21,24c1.28-.68,2.88-1.53,4.91-2.55a.5.5,0,0,0,.13-.8,3.24,3.24,0,0,0-3.51-1.12l-3.51,1.17c.11.29.17.1.17.42a4.3,4.3,0,0,1-.48,2c-.36.48-.9.23-1.52.23H11.9a.5.5,0,0,1-.5-.5.5.5,0,0,1,.5-.5h5.5c.79,0,1-.78,1-1.25s-.21-1.25-1-1.25H14.6A7.14,7.14,0,0,0,9.9,18.4H7.4v5.82L9.66,25C15.48,27,15.59,27,21.21,24Z"/></svg>